<svg width="17" height="17" viewBox="0 0 17 17" fill="none" xmlns="http://www.w3.org/2000/svg">
<g clip-path="url(#clip0_23_2352)">
<path fill-rule="evenodd" clip-rule="evenodd" d="M3.61631 7.25475C3.30192 7.56954 3.12533 7.99626 3.12533 8.44117C3.12533 8.88608 3.30192 9.3128 3.61631 9.6276L9.9466 15.9604C10.2615 16.2752 10.6886 16.452 11.1339 16.4519C11.5792 16.4518 12.0062 16.2748 12.321 15.9599C12.6358 15.6449 12.8126 15.2178 12.8125 14.7725C12.8124 14.3272 12.6354 13.9001 12.3205 13.5853L7.17654 8.44117L12.3205 3.29701C12.6264 2.98051 12.7958 2.55649 12.7922 2.11629C12.7886 1.67608 12.6123 1.2549 12.3011 0.943471C11.99 0.632041 11.569 0.455274 11.1288 0.451242C10.6887 0.447211 10.2645 0.616238 9.94772 0.921918L3.61519 7.25363L3.61631 7.25475Z" fill="#2D687C"/>
</g>
<defs>
<clipPath id="clip0_23_2352">
<rect width="16" height="16.0008" fill="white" transform="matrix(-1 0 0 1 16.1458 0.452148)"/>
</clipPath>
</defs>
</svg>
