<svg width="61" height="61" viewBox="0 0 61 61" fill="none" xmlns="http://www.w3.org/2000/svg">
<g opacity="0.15">
<path d="M28.072 11.683C20.6901 16.408 17.0001 22.1024 17.0001 28.7586C17.0001 30.8305 17.362 31.8655 18.082 31.8655L18.8245 31.6649C19.4095 31.4399 19.8801 31.3274 20.242 31.3274C22.3551 31.3274 24.1232 32.0961 25.5389 33.6336C26.9564 35.1711 27.6651 37.0649 27.6651 39.3261C27.6651 41.4955 26.8964 43.3386 25.3682 44.8518C23.8382 46.3649 21.9932 47.1205 19.8332 47.1205C16.8182 47.1205 14.3301 45.883 12.3707 43.4024C10.4151 40.9274 9.43823 37.8149 9.43823 34.0705C9.43823 29.833 10.267 25.9574 11.932 22.4399C13.6007 18.9243 16.1395 15.7461 19.5595 12.9055C22.9795 10.0668 25.162 8.64551 26.107 8.64551C26.737 8.64551 27.2545 8.94926 27.6595 9.55676C28.0645 10.1624 28.267 10.6911 28.267 11.1411L28.0664 11.6811L28.072 11.683ZM52.372 11.683C44.9901 16.408 41.302 22.1005 41.302 28.7605C41.302 30.8324 41.6639 31.8674 42.3839 31.8674L43.1264 31.6668C43.7114 31.4418 44.182 31.3293 44.5439 31.3293C46.612 31.3293 48.3689 32.098 49.807 33.6355C51.2507 35.173 51.967 37.0668 51.967 39.328C51.967 41.4974 51.1982 43.3405 49.6701 44.8536C48.1401 46.3668 46.2951 47.1224 44.1351 47.1224C41.1201 47.1224 38.632 45.8849 36.6726 43.4043C34.717 40.9293 33.7401 37.8168 33.7401 34.0724C33.7401 29.7899 34.5801 25.8786 36.2714 22.3424C37.9589 18.8043 40.4995 15.6355 43.897 12.8418C47.3001 10.0461 49.4695 8.64738 50.4126 8.64738C51.0445 8.64738 51.562 8.95113 51.9689 9.55863C52.372 10.1661 52.5745 10.6949 52.5745 11.1449L52.372 11.683Z" fill="#2D687C"/>
</g>
</svg>
